<svg xmlns="http://www.w3.org/2000/svg" viewBox="0 0 512 512">
  <defs>
    <linearGradient id="bgp3" x1="0" y1="0" x2="512" y2="512" gradientUnits="userSpaceOnUse">
      <stop offset="0%" stop-color="#111111"/>
      <stop offset="100%" stop-color="#1a1a1a"/>
    </linearGradient>
    <linearGradient id="accent3" x1="0" y1="0" x2="1" y2="1">
      <stop offset="0%" stop-color="#00FFB8"/>
      <stop offset="100%" stop-color="#008060"/>
    </linearGradient>
  </defs>
  <rect width="512" height="512" rx="110" fill="url(#bgp3)"/>
  <!-- Orbital ring -->
  <ellipse cx="256" cy="256" rx="160" ry="160" fill="none" stroke="url(#accent3)" stroke-width="8" opacity="0.2"/>
  <!-- Nova star burst -->
  <circle cx="256" cy="256" r="60" fill="url(#accent3)" opacity="0.9"/>
  <circle cx="256" cy="256" r="30" fill="#111"/>
  <!-- N letter inside -->
  <path d="M244 272V240L256 260L268 240V272" fill="none" stroke="#00FFB8" stroke-width="5" stroke-linecap="round" stroke-linejoin="round"/>
  <!-- Rays -->
  <line x1="256" y1="170" x2="256" y2="130" stroke="#00FFB8" stroke-width="6" stroke-linecap="round" opacity="0.6"/>
  <line x1="256" y1="342" x2="256" y2="382" stroke="#00FFB8" stroke-width="6" stroke-linecap="round" opacity="0.6"/>
  <line x1="170" y1="256" x2="130" y2="256" stroke="#00FFB8" stroke-width="6" stroke-linecap="round" opacity="0.6"/>
  <line x1="342" y1="256" x2="382" y2="256" stroke="#00FFB8" stroke-width="6" stroke-linecap="round" opacity="0.6"/>
  <!-- Diagonal rays -->
  <line x1="195" y1="195" x2="167" y2="167" stroke="#00FFB8" stroke-width="4" stroke-linecap="round" opacity="0.35"/>
  <line x1="317" y1="195" x2="345" y2="167" stroke="#00FFB8" stroke-width="4" stroke-linecap="round" opacity="0.35"/>
  <line x1="195" y1="317" x2="167" y2="345" stroke="#00FFB8" stroke-width="4" stroke-linecap="round" opacity="0.35"/>
  <line x1="317" y1="317" x2="345" y2="345" stroke="#00FFB8" stroke-width="4" stroke-linecap="round" opacity="0.35"/>
</svg>
